<svg width="42" height="42" viewBox="0 0 42 42" fill="none" xmlns="http://www.w3.org/2000/svg">
<path d="M21 42.0003C15.5882 42.0003 10.4831 41.2785 6.62501 39.9677C1.14942 38.1074 0 35.7245 0 34.0532C0 31.8729 1.94816 30.345 3.58239 29.4473C4.17818 29.12 4.92606 29.3377 5.25328 29.9332C5.5805 30.5288 5.36296 31.277 4.76733 31.6041C3.30159 32.4093 2.46094 33.302 2.46094 34.0532C2.46094 34.9721 3.76277 36.3961 7.41669 37.6375C11.0265 38.864 15.8505 39.5394 21 39.5394C26.1495 39.5394 30.9735 38.864 34.5833 37.6375C38.2372 36.3962 39.5391 34.9721 39.5391 34.0532C39.5391 33.302 38.6984 32.4093 37.2327 31.604C36.637 31.2769 36.4195 30.5288 36.7467 29.9331C37.0738 29.3376 37.8218 29.12 38.4176 29.4472C40.0518 30.345 42 31.8729 42 34.0532C42 35.7245 40.8506 38.1074 35.375 39.9677C31.5169 41.2785 26.4118 42.0003 21 42.0003Z" fill="#C9DFF7"/>
<path d="M38.4176 29.4482C37.8218 29.1209 37.0738 29.3386 36.7467 29.9341C36.4195 30.5297 36.6371 31.2779 37.2327 31.605C38.6984 32.4102 39.5391 33.3029 39.5391 34.0541C39.5391 34.973 38.2372 36.397 34.5833 37.6384C30.9735 38.8649 26.1495 39.5403 21 39.5403C20.9999 39.5403 20.9998 39.5403 20.9997 39.5403V42.0012C20.9998 42.0012 20.9999 42.0012 21 42.0012C26.4118 42.0012 31.5169 41.2794 35.375 39.9686C40.8506 38.1083 42 35.7254 42 34.0541C42 31.8738 40.0519 30.3459 38.4176 29.4482Z" fill="#AECEF2"/>
<path d="M21 36.9534C17.5072 36.9534 14.208 36.5648 11.7101 35.8591C8.65422 34.9958 7.10474 33.7462 7.10474 32.1451C7.10474 30.5439 8.65422 29.2944 11.7101 28.4312C14.208 27.7255 17.5072 27.3369 21 27.3369C24.4928 27.3369 27.792 27.7255 30.2899 28.4312C33.3458 29.2944 34.8953 30.544 34.8953 32.1451C34.8953 33.7462 33.3458 34.9958 30.2899 35.8591C27.792 36.5647 24.4928 36.9534 21 36.9534ZM9.58651 32.145C9.75541 32.393 10.577 33.0378 12.8259 33.6106C15.0582 34.1792 17.9612 34.4923 20.9999 34.4923C24.0386 34.4923 26.9417 34.1792 29.174 33.6106C31.423 33.0378 32.2445 32.3929 32.4134 32.145C32.2444 31.8971 31.4229 31.2523 29.1739 30.6794C26.9416 30.1109 24.0387 29.7978 20.9999 29.7978C17.9612 29.7978 15.0582 30.1109 12.8259 30.6794C10.577 31.2523 9.75549 31.8971 9.58651 32.145ZM32.4416 32.196H32.4425H32.4416Z" fill="#C9DFF7"/>
<path d="M30.2899 28.4302C27.792 27.7245 24.4928 27.3359 21 27.3359C20.9999 27.3359 20.9998 27.3359 20.9997 27.3359V29.7969C20.9998 29.7969 20.9999 29.7969 21 29.7969C24.0388 29.7969 26.9417 30.11 29.174 30.6785C31.423 31.2514 32.2446 31.8962 32.4135 32.1441C32.2445 32.3921 31.4231 33.0369 29.1741 33.6097C26.9418 34.1783 24.0388 34.4914 21 34.4914C20.9999 34.4914 20.9998 34.4914 20.9997 34.4914V36.9524C20.9998 36.9524 20.9999 36.9524 21 36.9524C24.4928 36.9524 27.792 36.5638 30.2899 35.8581C33.3458 34.9949 34.8953 33.7452 34.8953 32.1441C34.8953 30.543 33.3458 29.2934 30.2899 28.4302Z" fill="#AECEF2"/>
<path d="M21 0C14.6928 0 9.56158 5.13122 9.56158 11.4384C9.56158 15.3669 14.3344 24.0004 18.3383 30.5511C18.9097 31.4861 19.9047 32.0442 21 32.0442C22.0954 32.0442 23.0903 31.4861 23.6618 30.5511C27.6657 24.0004 32.4385 15.3669 32.4385 11.4384C32.4385 5.13122 27.3072 0 21 0ZM21 15.2505C18.4649 15.2505 16.4024 13.1881 16.4024 10.653C16.4024 8.11798 18.4649 6.05555 21 6.05555C23.5351 6.05555 25.5976 8.11798 25.5976 10.653C25.5976 13.1882 23.5351 15.2505 21 15.2505Z" fill="#FE5857"/>
<path d="M21 0C20.9999 0 20.9998 0 20.9997 0V6.05555C20.9998 6.05555 20.9999 6.05555 21 6.05555C23.5351 6.05555 25.5976 8.11798 25.5976 10.653C25.5976 13.1881 23.5351 15.2505 21 15.2505C20.9999 15.2505 20.9998 15.2505 20.9997 15.2505V32.0442C20.9998 32.0442 20.9999 32.0442 21 32.0442C22.0954 32.0442 23.0903 31.4861 23.6618 30.5511C27.6657 24.0004 32.4385 15.3669 32.4385 11.4384C32.4385 5.13122 27.3072 0 21 0Z" fill="#DB0253"/>
</svg>
