<svg width="42" height="42" viewBox="0 0 42 42" fill="none" xmlns="http://www.w3.org/2000/svg">
<g clip-path="url(#clip0)">
<path d="M41.1235 2.79403L25.7661 13.8966L23.2461 15.7226C21.9112 16.7089 20.089 16.7089 18.754 15.7226L16.234 13.8966L0.858307 2.81227C1.71351 1.61629 3.09498 0.908486 4.56529 0.913108H37.4348C38.8944 0.914392 40.2653 1.61347 41.1235 2.79403Z" fill="#FFD54F"/>
<path d="M0.858306 2.8125L16.234 13.8968L1.33312 28.7977C0.477481 27.9399 -0.00212296 26.7771 1.69821e-05 25.5655V5.47861C-0.00400611 4.52129 0.296528 3.58759 0.858306 2.8125Z" fill="#FFC107"/>
<path d="M42 5.47829V25.5653C42.0022 26.7769 41.5226 27.9397 40.667 28.7974L25.7662 13.8966L41.1235 2.79395C41.6937 3.57271 42.0006 4.51301 42 5.47829Z" fill="#FFC107"/>
<path d="M27.3913 33.7828C26.1788 33.7828 25.5652 32.8698 25.5652 31.0437C25.5951 28.4923 23.551 26.3998 20.9996 26.37C18.4482 26.3401 16.3558 28.3842 16.3259 30.9356C16.296 33.487 18.3401 35.5794 20.8915 35.6093C22.2589 35.6253 23.5632 35.0347 24.4531 33.9965C25.0594 35.0355 26.1892 35.6554 27.3913 35.6089C31.0435 35.6089 31.0435 32.1722 31.0435 31.0437C31.0436 25.4969 26.547 21.0002 21.0002 21C15.4534 20.9998 10.9567 25.4965 10.9565 31.0434C10.9564 36.5902 15.453 41.0869 20.9998 41.0871C23.6058 41.0871 26.1099 40.0742 27.9829 38.2623C28.3455 37.9093 28.3532 37.3293 28.0003 36.9667C27.6473 36.6041 27.0673 36.5964 26.7047 36.9493C23.4382 40.0999 18.2361 40.006 15.0855 36.7395C11.9349 33.473 12.0289 28.2708 15.2954 25.1202C18.5619 21.9697 23.764 22.0636 26.9146 25.3301C28.3941 26.864 29.2197 28.9127 29.2174 31.0438C29.2174 33.0908 28.7573 33.7828 27.3913 33.7828ZM21 33.7828C19.4873 33.7828 18.2609 32.5565 18.2609 31.0437C18.2609 29.5309 19.4873 28.3046 21 28.3046C22.5128 28.3046 23.7392 29.5309 23.7392 31.0437C23.7392 32.5565 22.5128 33.7828 21 33.7828Z" fill="#455A64"/>
<path d="M25.7661 13.8965L23.2461 15.7225C21.9112 16.7088 20.089 16.7088 18.754 15.7225L16.234 13.8965L1.33311 28.7974C2.19089 29.653 3.35365 30.1326 4.56529 30.1304H9.1761C9.67008 23.6007 15.3638 18.7078 21.8935 19.2018C27.7363 19.6438 32.3801 24.2876 32.8221 30.1304H37.4348C38.6465 30.1325 39.8092 29.653 40.667 28.7974L25.7661 13.8965Z" fill="#FFA000"/>
</g>
<defs>
<clipPath id="clip0">
<rect width="42" height="42" fill="white"/>
</clipPath>
</defs>
</svg>
