<svg width="252" height="229" viewBox="0 0 252 229" fill="none" xmlns="http://www.w3.org/2000/svg">
<g filter="url(#filter0_bd)">
<path d="M98 144H227V178H98V144Z" fill="#DADCDE"/>
<path d="M29.2188 164.281H151.844V177.906H29.2188V164.281Z" fill="#DADCDE"/>
<path d="M97.3438 89.3438V164.281H36.0312L41.7154 101.734C42.0235 98.348 43.5865 95.1996 46.0972 92.9071C48.608 90.6146 51.8851 89.3436 55.2851 89.3438H97.3438Z" fill="#F9CF58"/>
<path d="M97.3438 144.529V177.906H56.4688C56.4705 172.856 57.595 167.869 59.7608 163.306C61.9266 158.744 65.0796 154.719 68.9916 151.525C72.9036 148.331 77.4768 146.046 82.3802 144.836C87.2837 143.626 92.3948 143.521 97.3438 144.529Z" fill="#FFB655"/>
<path d="M29.2188 150.656H42.8438V177.906H29.2188V150.656Z" fill="#FFB800"/>
<path d="M83.7188 130.219H49.6562L52.3165 108.936C52.5225 107.289 53.3231 105.773 54.5679 104.674C55.8126 103.575 57.4158 102.969 59.0762 102.969H83.7188V130.219Z" fill="#E9EEF2"/>
<path d="M91.0976 198.344C102.385 198.344 111.535 189.194 111.535 177.906C111.535 166.619 102.385 157.469 91.0976 157.469C79.8102 157.469 70.6601 166.619 70.6601 177.906C70.6601 189.194 79.8102 198.344 91.0976 198.344Z" fill="#606669"/>
<path d="M91.0975 184.719C94.8599 184.719 97.91 181.669 97.91 177.906C97.91 174.144 94.8599 171.094 91.0975 171.094C87.3351 171.094 84.285 174.144 84.285 177.906C84.285 181.669 87.3351 184.719 91.0975 184.719Z" fill="#E9EEF2"/>
<path d="M43.4526 96.2117C42.4823 97.9057 41.8897 99.7896 41.7154 101.734L41.6047 102.969H32.625V113.188C32.625 114.091 32.2661 114.957 31.6273 115.596C30.9885 116.235 30.1221 116.594 29.2188 116.594C28.3154 116.594 27.449 116.235 26.8102 115.596C26.1714 114.957 25.8125 114.091 25.8125 113.188V99.5626C25.8125 98.6592 26.1714 97.7928 26.8102 97.154C27.449 96.5152 28.3154 96.1563 29.2188 96.1563H42.8438C43.048 96.1551 43.2519 96.1737 43.4526 96.2117Z" fill="#FFB800"/>
<path d="M189.312 198.344C200.6 198.344 209.75 189.194 209.75 177.906C209.75 166.619 200.6 157.469 189.312 157.469C178.025 157.469 168.875 166.619 168.875 177.906C168.875 189.194 178.025 198.344 189.312 198.344Z" fill="#606669"/>
<path d="M189.312 184.719C193.075 184.719 196.125 181.669 196.125 177.906C196.125 174.144 193.075 171.094 189.312 171.094C185.55 171.094 182.5 174.144 182.5 177.906C182.5 181.669 185.55 184.719 189.312 184.719Z" fill="#E9EEF2"/>
<path d="M66.1133 36.8102L226.161 112.691L220.324 125.002L60.2763 49.1216L66.1133 36.8102Z" fill="#FFA733"/>
<path d="M199.5 93C195.92 93 192.486 94.8262 189.954 98.0768C187.422 101.327 186 105.736 186 110.333V145H213V110.333C213 105.736 211.578 101.327 209.046 98.0768C206.514 94.8262 203.08 93 199.5 93Z" fill="#FFC477"/>
<path d="M199.531 112.125C201.412 112.125 202.938 110.6 202.938 108.719C202.938 106.838 201.412 105.312 199.531 105.312C197.65 105.312 196.125 106.838 196.125 108.719C196.125 110.6 197.65 112.125 199.531 112.125Z" fill="#E9EEF2"/>
<path d="M98 144H227V157H98V144Z" fill="#DADCDE"/>
<path d="M66.8166 22.0096L65.6513 60.8887L42.5842 57.1582C40.7985 56.8693 39.1767 55.9061 38.0236 54.4495C36.8705 52.9928 36.2655 51.1431 36.3223 49.248L37.1653 21.1209L66.8166 22.0096Z" fill="#A3A3A3"/>
</g>
<defs>
<filter id="filter0_bd" x="-6" y="-10" width="268" height="268" filterUnits="userSpaceOnUse" color-interpolation-filters="sRGB">
<feFlood flood-opacity="0" result="BackgroundImageFix"/>
<feGaussianBlur in="BackgroundImage" stdDeviation="2"/>
<feComposite in2="SourceAlpha" operator="in" result="effect1_backgroundBlur"/>
<feColorMatrix in="SourceAlpha" type="matrix" values="0 0 0 0 0 0 0 0 0 0 0 0 0 0 0 0 0 0 127 0"/>
<feOffset dy="4"/>
<feGaussianBlur stdDeviation="12.5"/>
<feColorMatrix type="matrix" values="0 0 0 0 0 0 0 0 0 0 0 0 0 0 0 0 0 0 0.25 0"/>
<feBlend mode="normal" in2="effect1_backgroundBlur" result="effect2_dropShadow"/>
<feBlend mode="normal" in="SourceGraphic" in2="effect2_dropShadow" result="shape"/>
</filter>
</defs>
</svg>
