<svg width="103" height="103" viewBox="0 0 103 103" fill="none" xmlns="http://www.w3.org/2000/svg">
<g filter="url(#filter0_bd)">
<path fill-rule="evenodd" clip-rule="evenodd" d="M32.2472 50.0455L30.1234 52.1658C29.6831 52.6036 29.6801 53.3213 30.1204 53.7621L30.983 54.6286C30.6737 55.2063 30.4238 55.8197 30.2423 56.46L28.999 56.457C28.3773 56.457 27.8687 56.9633 27.8687 57.5856L27.8628 60.5874C27.8598 61.2098 28.3685 61.719 28.9872 61.719L30.2781 61.722C30.4655 62.3443 30.7154 62.94 31.0188 63.4998L30.0997 64.4199C29.6594 64.8577 29.6564 65.5754 30.0967 66.0161L32.2116 68.1453C32.6519 68.5831 33.3687 68.5861 33.809 68.1483L34.7311 67.2282C35.2873 67.5349 35.8823 67.788 36.5009 67.9757V69.2681C36.4979 69.8904 37.0065 70.3997 37.6253 70.4027L40.6266 70.4087C41.2453 70.4087 41.754 69.9024 41.7569 69.2801L41.7599 68.0353C42.3994 67.8536 43.0122 67.6064 43.5892 67.3027L44.4518 68.1693C44.8891 68.607 45.6089 68.61 46.0492 68.1723L48.173 66.052C48.6132 65.6142 48.6132 64.8935 48.176 64.4528L47.361 63.6339C47.6941 63.0443 47.9648 62.416 48.1671 61.7578L49.2974 61.7608C49.9191 61.7608 50.4277 61.2545 50.4277 60.6322L50.4336 57.6304C50.4366 57.008 49.9279 56.4988 49.3062 56.4958H48.2234C48.033 55.8138 47.7653 55.1647 47.4351 54.5572L48.1966 53.7978C48.6368 53.36 48.6368 52.6393 48.1996 52.2016L46.0847 50.0723C45.6444 49.6316 44.9276 49.6316 44.4873 50.0693L43.7259 50.8287C43.119 50.4952 42.4735 50.2272 41.7924 50.0336L41.7954 48.9467C41.7984 48.3273 41.2897 47.8181 40.671 47.8151L37.6697 47.8091C37.048 47.8091 36.5394 48.3154 36.5394 48.9377L36.5364 50.0693C35.8791 50.2688 35.2484 50.5369 34.6594 50.8675L33.8445 50.0485C33.4043 49.6078 32.6875 49.6078 32.2472 50.0455Z" fill="#838383"/>
<path fill-rule="evenodd" clip-rule="evenodd" d="M40.8108 61.4212C40.6473 63.1513 40.2605 64.7744 39.6983 66.2216C39.1689 67.5736 38.4877 68.7737 37.6876 69.7684C37.5329 69.9589 37.3722 70.1436 37.2087 70.3193C37.3366 70.3729 37.4794 70.3997 37.6251 70.4027L40.6265 70.4087C41.0697 70.4087 41.4564 70.1496 41.6408 69.7744C41.7151 69.6255 41.7569 69.4557 41.7569 69.2801L41.7599 68.0353C42.3994 67.8536 43.0122 67.6064 43.5892 67.3027L44.4518 68.1693C44.889 68.607 45.6089 68.61 46.0491 68.1723L48.173 66.052C48.6132 65.6142 48.6132 64.8935 48.176 64.4528L47.361 63.6339C47.6941 63.0443 47.9648 62.416 48.1671 61.7578L49.2974 61.7608C49.9191 61.7608 50.4276 61.2545 50.4276 60.6322L50.4335 57.6304C50.4365 57.008 49.9279 56.4988 49.3062 56.4958H48.2234C48.033 55.8138 47.7653 55.1647 47.4351 54.5572L48.1966 53.7978C48.6368 53.36 48.6368 52.6393 48.1996 52.2016L46.0846 50.0723C45.6444 49.6316 44.9275 49.6316 44.4873 50.0693L43.7258 50.8287C43.119 50.4952 42.4735 50.2272 41.7924 50.0336L41.7954 48.9467C41.7984 48.3273 41.2897 47.8181 40.671 47.8151L37.6696 47.8091C37.4168 47.8091 37.1789 47.8925 36.9914 48.0384C36.8933 48.1098 36.8069 48.1991 36.7385 48.3005C38.7285 50.1557 40.189 53.1694 40.7006 56.7191C40.8493 56.8173 40.9921 56.9276 41.12 57.0526C41.6614 57.5737 41.9975 58.3034 41.9945 59.1133C41.9915 59.9233 41.6554 60.6529 41.1111 61.1711C41.019 61.2604 40.9179 61.3468 40.8108 61.4212Z" fill="#595959"/>
<path fill-rule="evenodd" clip-rule="evenodd" d="M39.1541 56.2575C37.5806 56.2544 36.3045 57.529 36.3015 59.1013C36.2985 60.6766 37.5687 61.9542 39.1422 61.9571C40.7157 61.9631 41.9918 60.6885 41.9948 59.1132C41.9978 57.5409 40.7247 56.2604 39.1541 56.2575Z" fill="#F9F7F7"/>
<path fill-rule="evenodd" clip-rule="evenodd" d="M39.4548 59.1104C39.4548 60.2271 38.8092 61.1919 37.8723 61.6565C38.256 61.8501 38.6873 61.9573 39.1425 61.9573C39.7642 61.9603 40.3412 61.7608 40.8111 61.4213C40.9182 61.3469 41.0193 61.2606 41.1115 61.1711C41.6559 60.6529 41.992 59.9234 41.9949 59.1134C41.9979 58.3033 41.6618 57.5738 41.1204 57.0527C40.9925 56.9276 40.8497 56.8174 40.701 56.7191C40.2548 56.4273 39.7253 56.2606 39.1543 56.2576C38.6962 56.2576 38.2648 56.3648 37.8841 56.5554C38.8181 57.0229 39.4577 57.9906 39.4548 59.1104Z" fill="#E2E2E2"/>
<path fill-rule="evenodd" clip-rule="evenodd" d="M48.0391 62.4188H53.7888H59.5357C59.5357 53.1664 68.4772 51.9692 68.4653 42.0229C68.4564 32.5412 61.1212 27.8777 53.7888 27.9819C46.4536 27.8777 39.1213 32.5412 39.1094 42.0229C39.0975 51.9693 48.0391 53.1664 48.0391 62.4188Z" fill="#FE9737"/>
<path fill-rule="evenodd" clip-rule="evenodd" d="M49.8386 28.3959C55.9513 29.0481 61.5881 33.0742 62.3942 40.5013C62.4597 41.0939 62.4924 41.7103 62.4924 42.3446C62.4954 43.2677 62.418 44.1164 62.2782 44.9026C62.1146 45.8288 61.8648 46.6656 61.5494 47.4428C61.3056 48.0443 61.023 48.6102 60.7136 49.1432C58.3131 53.2854 54.2677 55.7363 53.643 61.2514H57.4385C57.7985 59.6463 58.5986 58.1246 59.845 56.8768C60.4131 56.308 61.0408 55.8315 61.7041 55.4474C64.3514 51.4987 68.4741 48.7798 68.4652 42.0228C68.4563 32.5411 61.1211 27.8776 53.7888 27.9819C52.4562 27.9611 51.1267 28.1011 49.8386 28.3959Z" fill="#F36B37"/>
<path d="M53.7889 24.857C53.3538 24.857 53.001 24.5043 53.001 24.0691V21.7879C53.001 21.3527 53.3537 21 53.7889 21C54.2242 21 54.5768 21.3527 54.5768 21.7879V24.069C54.5768 24.5042 54.2241 24.857 53.7889 24.857Z" fill="#FE9737"/>
<path d="M45.341 26.8848C45.1392 26.8848 44.9374 26.8078 44.7834 26.6537L43.1713 25.0396C42.8639 24.7317 42.8642 24.2329 43.172 23.9253C43.4798 23.6179 43.9787 23.6182 44.2863 23.926L45.8984 25.5402C46.2059 25.848 46.2055 26.3469 45.8977 26.6544C45.744 26.808 45.5425 26.8848 45.341 26.8848Z" fill="#FE9737"/>
<path d="M62.2337 26.8848C62.0323 26.8848 61.8307 26.808 61.6769 26.6544C61.369 26.3469 61.3687 25.848 61.6762 25.5402L63.2883 23.926C63.5959 23.6182 64.0948 23.6179 64.4026 23.9253C64.7104 24.2329 64.7107 24.7317 64.4033 25.0396L62.7911 26.6537C62.6373 26.8078 62.4355 26.8848 62.2337 26.8848Z" fill="#FE9737"/>
<path d="M56.0674 44.2755H51.1267C50.6915 44.2755 50.3389 44.6282 50.3389 45.0634C50.3389 45.4985 50.6915 45.8512 51.1267 45.8512H52.8553V61.2513C52.8553 61.6865 53.208 62.0393 53.6433 62.0393C54.0786 62.0393 54.4312 61.6866 54.4312 61.2513V45.8513H56.0675C56.5027 45.8513 56.8555 45.4987 56.8555 45.0635C56.8555 44.6283 56.5026 44.2755 56.0674 44.2755Z" fill="#E2E2E2"/>
<path fill-rule="evenodd" clip-rule="evenodd" d="M49.0059 67.4813L53.4171 65.7124L58.5719 67.4813V70.7391C58.5719 72.5318 57.1054 74 55.3148 74H52.26C50.4693 74 49.0059 72.5318 49.0059 70.7391V67.4813Z" fill="#838383"/>
<path fill-rule="evenodd" clip-rule="evenodd" d="M47.3194 61.2515H60.2586C60.8357 61.2515 61.3057 61.7219 61.3057 62.2997V66.43C61.3057 67.0078 60.8357 67.4812 60.2586 67.4812H47.3194C46.7423 67.4812 46.2693 67.0078 46.2693 66.43V62.2997C46.2693 61.722 46.7423 61.2515 47.3194 61.2515Z" fill="#F9F7F7"/>
<path fill-rule="evenodd" clip-rule="evenodd" d="M57.1055 67.4813H49.0059V69.5093H54.7974C56.1805 69.5093 56.2639 69.9023 56.2639 71.1382V71.6236V72.7671C56.2639 73.1692 56.1895 73.5563 56.0527 73.9137C57.4924 73.5771 58.5722 72.2788 58.5722 70.7392V69.5986V67.4813H57.1055Z" fill="#595959"/>
<path fill-rule="evenodd" clip-rule="evenodd" d="M53.6433 61.2515C53.5571 61.6356 53.4975 62.0258 53.4618 62.4188C53.3607 63.5682 53.4796 64.7356 53.8217 65.8494C53.9794 66.3705 54.1876 66.8768 54.4405 67.3652L54.5029 67.4813H57.1056H58.2984C58.2776 67.4426 58.2568 67.4039 58.236 67.3652C57.4358 65.8286 57.1086 64.1044 57.2573 62.4188C57.293 62.0258 57.3526 61.6356 57.4388 61.2515H53.6433Z" fill="#E2E2E2"/>
<path fill-rule="evenodd" clip-rule="evenodd" d="M59.845 69.5569C63.3431 73.059 69.0156 73.059 72.5137 69.5569C76.0118 66.0549 76.0118 60.3789 72.5137 56.8769C69.0156 53.3749 63.3431 53.3749 59.845 56.8769C56.3469 60.3789 56.3469 66.0549 59.845 69.5569Z" fill="#97DA7B"/>
<path fill-rule="evenodd" clip-rule="evenodd" d="M69.2804 69.5569C72.7785 66.0549 72.7785 60.3789 69.2804 56.8769C67.9448 55.5398 66.2909 54.712 64.5627 54.3962C67.3588 53.884 70.3512 54.7119 72.5137 56.8769C76.0118 60.3789 76.0118 66.0549 72.5137 69.5569C70.3511 71.7219 67.3588 72.5498 64.5627 72.0376C66.2909 71.7219 67.9448 70.8941 69.2804 69.5569Z" fill="#68CA44"/>
<path d="M65.709 64.9102C65.709 64.4772 65.7627 64.1322 65.8701 63.875C65.9775 63.6178 66.1891 63.3363 66.5049 63.0303C66.8239 62.721 67.0257 62.5013 67.1104 62.3711C67.2406 62.1725 67.3057 61.9577 67.3057 61.7266C67.3057 61.4206 67.2292 61.1878 67.0762 61.0283C66.9264 60.8656 66.7051 60.7842 66.4121 60.7842C66.1322 60.7842 65.9059 60.8639 65.7334 61.0234C65.5641 61.1797 65.4795 61.3929 65.4795 61.6631H64.293C64.2995 61.0869 64.4948 60.6312 64.8789 60.2959C65.2663 59.9606 65.7773 59.793 66.4121 59.793C67.0664 59.793 67.5758 59.959 67.9404 60.291C68.3083 60.623 68.4922 61.0869 68.4922 61.6826C68.4922 62.2132 68.2448 62.7357 67.75 63.25L67.1494 63.8408C66.9346 64.085 66.8239 64.4414 66.8174 64.9102H65.709ZM65.626 66.4287C65.626 66.2367 65.6862 66.082 65.8066 65.9648C65.9271 65.8444 66.0898 65.7842 66.2949 65.7842C66.5033 65.7842 66.6676 65.846 66.7881 65.9697C66.9085 66.0902 66.9688 66.2432 66.9688 66.4287C66.9688 66.6077 66.9102 66.7575 66.793 66.8779C66.6758 66.9984 66.5098 67.0586 66.2949 67.0586C66.0801 67.0586 65.9141 66.9984 65.7969 66.8779C65.6829 66.7575 65.626 66.6077 65.626 66.4287Z" fill="white"/>
</g>
<defs>
<filter id="filter0_bd" x="0" y="0" width="103" height="103" filterUnits="userSpaceOnUse" color-interpolation-filters="sRGB">
<feFlood flood-opacity="0" result="BackgroundImageFix"/>
<feGaussianBlur in="BackgroundImage" stdDeviation="2"/>
<feComposite in2="SourceAlpha" operator="in" result="effect1_backgroundBlur"/>
<feColorMatrix in="SourceAlpha" type="matrix" values="0 0 0 0 0 0 0 0 0 0 0 0 0 0 0 0 0 0 127 0"/>
<feOffset dy="4"/>
<feGaussianBlur stdDeviation="12.5"/>
<feColorMatrix type="matrix" values="0 0 0 0 0 0 0 0 0 0 0 0 0 0 0 0 0 0 0.25 0"/>
<feBlend mode="normal" in2="effect1_backgroundBlur" result="effect2_dropShadow"/>
<feBlend mode="normal" in="SourceGraphic" in2="effect2_dropShadow" result="shape"/>
</filter>
</defs>
</svg>
