<svg width="268" height="268" viewBox="0 0 268 268" fill="none" xmlns="http://www.w3.org/2000/svg">
<g filter="url(#filter0_bd)">
<path fill-rule="evenodd" clip-rule="evenodd" d="M54.8094 140.47L46.0737 149.192C44.2628 150.992 44.2505 153.944 46.0613 155.757L49.6093 159.321C48.3371 161.698 47.3093 164.221 46.5629 166.854L41.4488 166.842C38.8916 166.842 36.7997 168.924 36.7997 171.484L36.7754 183.831C36.7631 186.391 38.8554 188.486 41.4003 188.486L46.7102 188.498C47.4809 191.058 48.5087 193.508 49.7567 195.81L45.9762 199.595C44.1653 201.396 44.153 204.348 45.9638 206.161L54.6629 214.919C56.4738 216.719 59.4223 216.732 61.2332 214.931L65.026 211.146C67.3138 212.408 69.7611 213.449 72.3056 214.221V219.537C72.2933 222.096 74.3856 224.191 76.9304 224.204L89.2755 224.228C91.8204 224.228 93.9127 222.146 93.9247 219.586L93.937 214.466C96.5675 213.719 99.0881 212.702 101.461 211.453L105.009 215.017C106.808 216.818 109.769 216.83 111.58 215.029L120.315 206.308C122.126 204.507 122.126 201.543 120.328 199.731L116.976 196.362C118.346 193.937 119.459 191.353 120.291 188.645L124.94 188.658C127.498 188.658 129.589 186.575 129.589 184.015L129.614 171.669C129.626 169.108 127.534 167.014 124.976 167.002H120.523C119.74 164.197 118.639 161.527 117.28 159.028L120.413 155.904C122.223 154.103 122.223 151.139 120.425 149.339L111.726 140.581C109.915 138.768 106.966 138.768 105.155 140.568L102.023 143.692C99.5275 142.32 96.8723 141.218 94.0707 140.421L94.083 135.951C94.0954 133.403 92.0031 131.308 89.4582 131.296L77.1131 131.271C74.5559 131.271 72.464 133.354 72.464 135.914L72.4517 140.568C69.7479 141.389 67.1541 142.492 64.7314 143.851L61.3792 140.483C59.5688 138.67 56.6203 138.67 54.8094 140.47Z" fill="#838383"/>
<path fill-rule="evenodd" clip-rule="evenodd" d="M90.0339 187.261C89.3611 194.377 87.7704 201.053 85.458 207.006C83.2801 212.567 80.4785 217.503 77.1872 221.594C76.5511 222.378 75.8903 223.138 75.2175 223.86C75.7438 224.081 76.3309 224.191 76.9304 224.204L89.2755 224.228C91.0987 224.228 92.689 223.163 93.4478 221.619C93.7535 221.007 93.9251 220.309 93.9251 219.586L93.9374 214.466C96.5679 213.719 99.0885 212.702 101.462 211.453L105.01 215.017C106.808 216.818 109.769 216.83 111.58 215.029L120.316 206.308C122.127 204.507 122.127 201.543 120.328 199.731L116.976 196.362C118.346 193.937 119.46 191.353 120.292 188.645L124.941 188.658C127.498 188.658 129.59 186.575 129.59 184.015L129.614 171.669C129.626 169.108 127.534 167.014 124.977 167.002H120.523C119.74 164.197 118.639 161.527 117.281 159.028L120.413 155.904C122.224 154.103 122.224 151.139 120.425 149.339L111.726 140.581C109.915 138.768 106.967 138.768 105.156 140.568L102.024 143.692C99.5279 142.32 96.8728 141.218 94.0711 140.421L94.0835 135.951C94.0958 133.403 92.0035 131.308 89.4586 131.296L77.1135 131.271C76.0733 131.271 75.0949 131.615 74.3238 132.214C73.9202 132.508 73.5651 132.876 73.2836 133.293C81.4689 140.923 87.4762 153.32 89.5804 167.92C90.1923 168.324 90.7794 168.778 91.3057 169.292C93.5325 171.435 94.915 174.437 94.9027 177.768C94.8903 181.1 93.5078 184.101 91.2691 186.232C90.8901 186.6 90.4741 186.955 90.0339 187.261Z" fill="#595959"/>
<path fill-rule="evenodd" clip-rule="evenodd" d="M83.2188 166.022C76.7465 166.009 71.4979 171.252 71.4856 177.719C71.4732 184.199 76.6975 189.454 83.1698 189.465C89.6421 189.49 94.8907 184.247 94.9031 177.768C94.9154 171.301 89.6792 166.033 83.2188 166.022Z" fill="#F9F7F7"/>
<path fill-rule="evenodd" clip-rule="evenodd" d="M84.4548 177.756C84.4548 182.349 81.7997 186.318 77.9459 188.229C79.5243 189.025 81.2981 189.466 83.1703 189.466C85.7275 189.478 88.1008 188.657 90.0339 187.261C90.4741 186.955 90.8901 186.6 91.2695 186.232C93.5087 184.101 94.8912 181.1 94.9031 177.768C94.9154 174.436 93.5329 171.435 91.3061 169.292C90.7798 168.778 90.1927 168.324 89.5808 167.92C87.7457 166.72 85.5678 166.034 83.2188 166.021C81.3347 166.021 79.5605 166.463 77.9945 167.246C81.8363 169.169 84.4668 173.15 84.4548 177.756Z" fill="#E2E2E2"/>
<path fill-rule="evenodd" clip-rule="evenodd" d="M119.765 191.364H143.415H167.053C167.053 153.307 203.831 148.383 203.782 107.471C203.746 68.4712 173.574 49.2893 143.415 49.7181C113.244 49.2893 83.0843 68.4712 83.0353 107.471C82.9864 148.383 119.765 153.307 119.765 191.364Z" fill="#FE9737"/>
<path fill-rule="evenodd" clip-rule="evenodd" d="M127.167 51.4212C152.309 54.1036 175.494 70.664 178.81 101.213C179.08 103.651 179.214 106.186 179.214 108.795C179.226 112.592 178.908 116.083 178.333 119.317C177.66 123.126 176.633 126.568 175.336 129.765C174.333 132.239 173.17 134.566 171.897 136.759C162.024 153.797 145.385 163.878 142.815 186.562H158.427C159.907 179.96 163.198 173.701 168.325 168.569C170.661 166.229 173.243 164.269 175.972 162.689C186.861 146.447 203.818 135.264 203.782 107.471C203.745 68.4712 173.574 49.2893 143.414 49.7181C137.933 49.6325 132.465 50.2086 127.167 51.4212Z" fill="#F36B37"/>
<path d="M143.415 36.8646C141.625 36.8646 140.174 35.414 140.174 33.624V24.2406C140.174 22.4506 141.625 21 143.415 21C145.205 21 146.656 22.4506 146.656 24.2406V33.6236C146.656 35.4135 145.205 36.8646 143.415 36.8646Z" fill="#FE9737"/>
<path d="M108.667 45.2057C107.838 45.2057 107.007 44.8889 106.374 44.2549L99.743 37.6157C98.4784 36.3494 98.4797 34.2976 99.746 33.0326C101.012 31.768 103.064 31.7693 104.329 33.0356L110.96 39.6748C112.225 40.9411 112.223 42.9929 110.957 44.2579C110.325 44.8898 109.496 45.2057 108.667 45.2057Z" fill="#FE9737"/>
<path d="M178.15 45.2057C177.322 45.2057 176.493 44.8898 175.86 44.2579C174.594 42.9929 174.592 40.9411 175.857 39.6748L182.488 33.0356C183.753 31.7693 185.805 31.768 187.071 33.0326C188.337 34.2976 188.339 36.3494 187.074 37.6157L180.443 44.2549C179.81 44.8889 178.98 45.2057 178.15 45.2057Z" fill="#FE9737"/>
<path d="M152.787 116.737H132.465C130.675 116.737 129.224 118.188 129.224 119.978C129.224 121.768 130.675 123.218 132.465 123.218H139.575V186.562C139.575 188.352 141.025 189.803 142.816 189.803C144.606 189.803 146.056 188.352 146.056 186.562V123.219H152.787C154.577 123.219 156.028 121.768 156.028 119.978C156.028 118.188 154.577 116.737 152.787 116.737Z" fill="#E2E2E2"/>
<path fill-rule="evenodd" clip-rule="evenodd" d="M123.741 212.187L141.885 204.911L163.089 212.187V225.587C163.089 232.961 157.057 239 149.691 239H137.126C129.761 239 123.741 232.961 123.741 225.587V212.187Z" fill="#838383"/>
<path fill-rule="evenodd" clip-rule="evenodd" d="M116.804 186.562H170.026C172.4 186.562 174.333 188.498 174.333 190.874V207.863C174.333 210.239 172.4 212.187 170.026 212.187H116.804C114.43 212.187 112.485 210.239 112.485 207.863V190.874C112.485 188.498 114.43 186.562 116.804 186.562Z" fill="#F9F7F7"/>
<path fill-rule="evenodd" clip-rule="evenodd" d="M157.057 212.187H123.741V220.529H147.563C153.252 220.529 153.595 222.145 153.595 227.229V229.225V233.929C153.595 235.583 153.289 237.175 152.726 238.645C158.648 237.261 163.089 231.92 163.089 225.587V220.896V212.187H157.057Z" fill="#595959"/>
<path fill-rule="evenodd" clip-rule="evenodd" d="M142.815 186.562C142.461 188.143 142.216 189.747 142.069 191.364C141.653 196.092 142.142 200.893 143.549 205.475C144.198 207.618 145.054 209.701 146.094 211.71L146.351 212.187H157.057H161.963C161.877 212.028 161.792 211.869 161.706 211.71C158.415 205.389 157.069 198.297 157.681 191.364C157.828 189.747 158.072 188.143 158.427 186.562H142.815Z" fill="#E2E2E2"/>
<path fill-rule="evenodd" clip-rule="evenodd" d="M168.325 220.725C182.714 235.129 206.046 235.129 220.434 220.725C234.822 206.32 234.822 182.974 220.434 168.569C206.046 154.164 182.714 154.164 168.325 168.569C153.937 182.974 153.937 206.32 168.325 220.725Z" fill="#97DA7B"/>
<path fill-rule="evenodd" clip-rule="evenodd" d="M207.134 220.725C221.523 206.32 221.523 182.974 207.134 168.569C201.641 163.069 194.838 159.664 187.73 158.366C199.231 156.259 211.539 159.664 220.434 168.569C234.822 182.974 234.822 206.32 220.434 220.725C211.539 229.629 199.231 233.035 187.73 230.928C194.838 229.629 201.641 226.224 207.134 220.725Z" fill="#68CA44"/>
<path d="M190.859 202.969C190.859 200.891 191.117 199.234 191.633 198C192.148 196.766 193.164 195.414 194.68 193.945C196.211 192.461 197.18 191.406 197.586 190.781C198.211 189.828 198.523 188.797 198.523 187.688C198.523 186.219 198.156 185.102 197.422 184.336C196.703 183.555 195.641 183.164 194.234 183.164C192.891 183.164 191.805 183.547 190.977 184.312C190.164 185.062 189.758 186.086 189.758 187.383H184.062C184.094 184.617 185.031 182.43 186.875 180.82C188.734 179.211 191.188 178.406 194.234 178.406C197.375 178.406 199.82 179.203 201.57 180.797C203.336 182.391 204.219 184.617 204.219 187.477C204.219 190.023 203.031 192.531 200.656 195L197.773 197.836C196.742 199.008 196.211 200.719 196.18 202.969H190.859ZM190.461 210.258C190.461 209.336 190.75 208.594 191.328 208.031C191.906 207.453 192.688 207.164 193.672 207.164C194.672 207.164 195.461 207.461 196.039 208.055C196.617 208.633 196.906 209.367 196.906 210.258C196.906 211.117 196.625 211.836 196.062 212.414C195.5 212.992 194.703 213.281 193.672 213.281C192.641 213.281 191.844 212.992 191.281 212.414C190.734 211.836 190.461 211.117 190.461 210.258Z" fill="white"/>
</g>
<defs>
<filter id="filter0_bd" x="0" y="0" width="268" height="268" filterUnits="userSpaceOnUse" color-interpolation-filters="sRGB">
<feFlood flood-opacity="0" result="BackgroundImageFix"/>
<feGaussianBlur in="BackgroundImage" stdDeviation="2"/>
<feComposite in2="SourceAlpha" operator="in" result="effect1_backgroundBlur"/>
<feColorMatrix in="SourceAlpha" type="matrix" values="0 0 0 0 0 0 0 0 0 0 0 0 0 0 0 0 0 0 127 0"/>
<feOffset dy="4"/>
<feGaussianBlur stdDeviation="12.5"/>
<feColorMatrix type="matrix" values="0 0 0 0 0 0 0 0 0 0 0 0 0 0 0 0 0 0 0.25 0"/>
<feBlend mode="normal" in2="effect1_backgroundBlur" result="effect2_dropShadow"/>
<feBlend mode="normal" in="SourceGraphic" in2="effect2_dropShadow" result="shape"/>
</filter>
</defs>
</svg>
