<svg width="50" height="50" viewBox="0 0 50 50" fill="none" xmlns="http://www.w3.org/2000/svg">
<path d="M0.409485 25.4782C0.409485 27.5365 3.69941 29.1361 4.20763 31.0345C4.73378 32.9982 2.70137 36.0221 3.69582 37.7416C4.7087 39.4863 8.35791 39.2344 9.77563 40.651C11.1933 42.0677 10.942 45.7086 12.6894 46.7186C14.4126 47.7133 17.4415 45.6846 19.4094 46.2078C21.3118 46.7161 22.9143 49.9999 24.9764 49.9999C27.0385 49.9999 28.641 46.7161 30.5429 46.2088C32.5103 45.6836 35.5397 47.7123 37.2624 46.7197C39.0103 45.7086 38.7579 42.0661 40.1772 40.651C41.5965 39.2359 45.2441 39.4868 46.256 37.7427C47.2525 36.0226 45.2201 32.9987 45.7442 31.035C46.2534 29.1361 49.5433 27.5365 49.5433 25.4782C49.5433 23.42 46.2534 21.8204 45.7452 19.922C45.2191 17.9583 47.2515 14.9344 46.257 13.2148C45.2441 11.4702 41.5949 11.7221 40.1772 10.3054C38.7595 8.8888 39.0108 5.24784 37.2635 4.23785C35.5402 3.24319 32.5113 5.27185 30.5434 4.74872C28.641 4.24041 27.0385 0.956543 24.9764 0.956543C22.9143 0.956543 21.3118 4.24041 19.41 4.7477C17.4426 5.27236 14.4131 3.24421 12.6904 4.23683C10.9426 5.24784 11.1949 8.89033 9.77563 10.3054C8.35637 11.7205 4.7087 11.4697 3.69685 13.2138C2.70035 14.9334 4.73275 17.9577 4.20866 19.9215C3.69941 21.8204 0.409485 23.42 0.409485 25.4782Z" fill="#FFC26F"/>
<path d="M24.9764 40.65C33.371 40.65 40.1762 33.8573 40.1762 25.4782C40.1762 17.099 33.371 10.3064 24.9764 10.3064C16.5818 10.3064 9.77661 17.099 9.77661 25.4782C9.77661 33.8573 16.5818 40.65 24.9764 40.65Z" fill="#F89068"/>
<path d="M23.3954 31.803C23.6644 31.8034 23.9308 31.7507 24.1793 31.648C24.4278 31.5452 24.6535 31.3944 24.8434 31.2042L33.4213 22.6421C33.7942 22.2567 34.0006 21.7405 33.9959 21.2047C33.9912 20.6689 33.7759 20.1564 33.3964 19.7775C33.0168 19.3986 32.5033 19.1837 31.9665 19.179C31.4298 19.1744 30.9126 19.3803 30.5265 19.7526L23.3954 26.8695L19.4269 22.9082C19.2376 22.715 19.0117 22.5611 18.7625 22.4556C18.5132 22.35 18.2454 22.2949 17.9747 22.2933C17.7039 22.2918 17.4355 22.3439 17.185 22.4466C16.9346 22.5493 16.707 22.7006 16.5155 22.8917C16.324 23.0828 16.1724 23.3099 16.0695 23.5599C15.9666 23.8099 15.9143 24.0778 15.9158 24.348C15.9173 24.6183 15.9725 24.8856 16.0782 25.1344C16.1839 25.3833 16.338 25.6087 16.5316 25.7977L21.948 31.2042C22.1378 31.3944 22.3634 31.5452 22.6118 31.648C22.8602 31.7507 23.1265 31.8034 23.3954 31.803Z" fill="#FFFFF8"/>
</svg>
