<svg width="53" height="53" viewBox="0 0 53 53" fill="none" xmlns="http://www.w3.org/2000/svg">
<path d="M26.5 53C41.1355 53 53 41.1355 53 26.5C53 11.8645 41.1355 0 26.5 0C11.8645 0 0 11.8645 0 26.5C0 41.1355 11.8645 53 26.5 53Z" fill="url(#paint0_linear)"/>
<path d="M26.5 53C41.1355 53 53 41.1355 53 26.5C53 11.8645 41.1355 0 26.5 0C11.8645 0 0 11.8645 0 26.5C0 41.1355 11.8645 53 26.5 53Z" fill="url(#paint1_radial)"/>
<path d="M31.1582 7.46682C30.123 7.45492 29.0879 7.44705 28.0527 7.44312C29.0927 8.50788 30.1415 9.57595 31.1967 10.6451C31.214 12.2342 31.2285 13.8233 31.24 15.4125C32.2934 15.4189 33.3466 15.4276 34.4 15.4384C34.3807 13.8535 34.3567 12.2687 34.3279 10.6839C34.2933 8.93467 32.87 7.48721 31.1582 7.46682Z" fill="url(#paint2_linear)"/>
<path d="M24.9472 7.44312C23.9121 7.44705 22.8769 7.45502 21.8418 7.46682C20.1297 7.48721 18.7066 8.93467 18.6721 10.6839C18.6432 12.2687 18.6192 13.8535 18.6 15.4384C19.6534 15.4276 20.7066 15.4189 21.76 15.4125C21.7716 13.8233 21.786 12.2342 21.8033 10.6451C21.8251 8.89068 23.2352 7.45005 24.9472 7.44312Z" fill="url(#paint3_linear)"/>
<path d="M28.0527 7.44314C27.0176 7.4392 25.9824 7.4392 24.9473 7.44314C23.2352 7.44997 21.8251 8.8908 21.8033 10.6451C24.9344 10.616 28.0656 10.616 31.1967 10.6451C31.1749 8.8907 29.7648 7.45007 28.0527 7.44314Z" fill="url(#paint4_linear)"/>
<path d="M9.00697 21.8294C8.95522 27.5455 9.04579 33.2615 9.2787 38.9777C9.35137 40.6968 10.8134 42.1531 12.5254 42.2142C14.0781 42.2676 15.6308 42.312 17.1836 42.3476C25.9118 39.9128 34.8561 37.1007 43.88 34.3009C43.993 30.1437 44.0306 25.9867 43.993 21.8295C32.331 21.7424 20.6689 21.7424 9.00697 21.8294Z" fill="url(#paint5_linear)"/>
<path d="M40.4746 42.2141C32.7109 42.481 24.9473 42.5255 17.1836 42.3476C15.4716 42.3068 14.0291 40.8528 13.9754 39.1159C13.9293 37.5416 13.8908 35.9673 13.8599 34.393C23.8666 34.5569 33.8733 34.5261 43.88 34.3008C43.8376 35.8597 43.7846 37.4187 43.7212 38.9776C43.6485 40.6969 42.1866 42.1531 40.4746 42.2141Z" fill="url(#paint6_linear)"/>
<path d="M40.4746 42.2142C31.1582 42.5345 21.8418 42.5345 12.5254 42.2142C10.8134 42.1531 9.35137 40.697 9.2787 38.9777C9.04579 33.2615 8.95522 27.5455 9.00697 21.8294C20.6689 21.7424 32.3309 21.7424 43.9929 21.8294C44.0446 27.5455 43.9541 33.2615 43.7212 38.9777C43.6485 40.697 42.1865 42.1531 40.4746 42.2142Z" fill="url(#paint7_linear)"/>
<path d="M21.7725 13.8232C20.722 13.8308 19.6715 13.8408 18.6209 13.8535C17.8255 14.3911 17.0284 14.929 16.23 15.4662C15.4483 14.95 14.6693 14.4368 13.8933 13.9271C12.3175 13.9573 10.7417 13.9931 9.16588 14.0346C8.29614 14.0581 7.56595 14.7738 7.53996 15.6307C7.41678 19.7714 7.37568 23.912 7.41678 28.0526C7.43448 29.765 8.88473 31.1792 10.6358 31.2055C20.1544 31.3349 29.6728 31.3478 39.1913 31.2443C33.4497 25.5352 27.5011 19.6085 21.7725 13.8232Z" fill="url(#paint8_linear)"/>
<path d="M43.8342 14.0347C42.2584 13.9932 40.6825 13.9574 39.1067 13.9272C38.3308 14.4369 37.5517 14.9501 36.7701 15.4663C35.9718 14.9291 35.1746 14.3913 34.3792 13.8536C30.1769 13.8033 25.9747 13.7932 21.7725 13.8233C21.6886 23.4587 29.5847 31.3585 39.1914 31.2444C40.249 31.2329 41.3066 31.22 42.3643 31.2056C44.1152 31.1793 45.5656 29.7651 45.5833 28.0527C45.6244 23.9121 45.5833 19.7714 45.4601 15.6308C45.4342 14.774 44.7038 14.0582 43.8342 14.0347Z" fill="url(#paint9_linear)"/>
<path d="M39.1913 31.2445C37.605 31.2617 36.0185 31.2757 34.4321 31.2865C34.4792 25.4755 34.4615 19.6645 34.3792 13.8535C35.955 13.8724 37.5308 13.8969 39.1067 13.9271C39.2384 19.6996 39.2667 25.472 39.1913 31.2445Z" fill="url(#paint10_linear)"/>
<path d="M39.2093 29.6702C38.6797 29.6746 38.1503 29.6786 37.6207 29.6823C37.6028 31.7868 37.5727 33.8913 37.5308 35.9957C38.0561 35.9869 38.5814 35.9775 39.1066 35.9675C39.9765 35.9504 40.7004 35.232 40.72 34.3657C40.7431 33.3192 40.7624 32.2727 40.7778 31.2263C40.7908 30.3597 40.0868 29.6636 39.2093 29.6702Z" fill="url(#paint11_linear)"/>
<path d="M37.6207 29.6822C36.5615 29.6897 35.5024 29.6961 34.4433 29.7016C33.5657 29.7059 32.8513 30.4193 32.8457 31.2962C32.8389 32.3543 32.8303 33.4125 32.82 34.4707C32.8119 35.3475 33.5092 36.0516 34.3792 36.0409C35.9775 34.4372 37.5844 32.836 39.1914 31.2444C39.2028 30.3753 38.4982 29.6765 37.6207 29.6822Z" fill="url(#paint12_linear)"/>
<path d="M36.6762 39.1687C35.3805 39.1956 34.3489 38.1467 34.3676 36.8333C34.3956 34.9844 34.4171 33.1354 34.4322 31.2864C36.0185 31.2756 37.605 31.2616 39.1914 31.2444C39.1675 33.0811 39.133 34.9177 39.0881 36.7544C39.0549 38.0576 37.9716 39.1418 36.6762 39.1687Z" fill="url(#paint13_linear)"/>
<path d="M36.6762 39.1687C35.3805 39.1956 34.3489 38.1467 34.3676 36.8333C34.3956 34.9844 34.4171 33.1354 34.4322 31.2864C36.0185 31.2756 37.605 31.2616 39.1914 31.2444C39.1675 33.0811 39.133 34.9177 39.0881 36.7544C39.0549 38.0576 37.9716 39.1418 36.6762 39.1687Z" fill="url(#paint14_linear)"/>
<path d="M37.573 33.6283C37.566 34.064 37.2062 34.4224 36.7701 34.4283C36.3339 34.4342 35.9855 34.0845 35.9912 33.6475C35.997 33.2106 36.3557 32.853 36.793 32.8482C37.2302 32.8434 37.5799 33.1926 37.573 33.6283Z" fill="url(#paint15_linear)"/>
<path d="M37.573 33.6283C37.566 34.064 37.2062 34.4224 36.7701 34.4283C36.3339 34.4342 35.9855 34.0845 35.9912 33.6475C35.997 33.2106 36.3557 32.853 36.793 32.8482C37.2302 32.8434 37.5799 33.1926 37.573 33.6283Z" fill="url(#paint16_radial)"/>
<path d="M37.6358 27.3147C37.6339 27.7505 37.2758 28.1054 36.8367 28.1075C36.3976 28.1096 36.0434 27.7569 36.0449 27.32C36.0465 26.8831 36.4035 26.5282 36.8429 26.5273C37.2823 26.5265 37.6376 26.879 37.6358 27.3147Z" fill="url(#paint17_linear)"/>
<path d="M37.6358 27.3147C37.6339 27.7505 37.2758 28.1054 36.8367 28.1075C36.3976 28.1096 36.0434 27.7569 36.0449 27.32C36.0465 26.8831 36.4035 26.5282 36.8429 26.5273C37.2823 26.5265 37.6376 26.879 37.6358 27.3147Z" fill="url(#paint18_radial)"/>
<path d="M37.6404 24.1582C37.641 24.594 37.2847 24.9473 36.8452 24.9474C36.4057 24.9474 36.0495 24.5933 36.049 24.1564C36.0484 23.7195 36.4037 23.3662 36.8431 23.3672C37.2824 23.3683 37.6398 23.7225 37.6404 24.1582Z" fill="url(#paint19_linear)"/>
<path d="M37.6404 24.1582C37.641 24.594 37.2847 24.9473 36.8452 24.9474C36.4057 24.9474 36.0495 24.5933 36.049 24.1564C36.0484 23.7195 36.4037 23.3662 36.8431 23.3672C37.2824 23.3683 37.6398 23.7225 37.6404 24.1582Z" fill="url(#paint20_radial)"/>
<path d="M18.5679 31.2865C16.9816 31.2757 15.3951 31.2616 13.8087 31.2445C13.7334 25.472 13.7616 19.6996 13.8934 13.9271C15.4692 13.8969 17.045 13.8724 18.6208 13.8535C18.5385 19.6645 18.5208 25.4755 18.5679 31.2865Z" fill="url(#paint21_linear)"/>
<path d="M18.5567 29.7018C18.0271 29.6991 17.4976 29.6961 16.968 29.6929C16.9834 31.802 17.0091 33.9111 17.045 36.0203C17.5703 36.0278 18.0956 36.0348 18.6209 36.0411C19.4908 36.0517 20.1881 35.3476 20.18 34.4708C20.1698 33.4127 20.1612 32.3546 20.1543 31.2963C20.1489 30.4194 19.4344 29.7059 18.5567 29.7018Z" fill="url(#paint22_linear)"/>
<path d="M16.968 29.6929C15.9089 29.6864 14.8498 29.6789 13.7907 29.6702C12.9131 29.6636 12.2091 30.3597 12.2222 31.2262C12.2377 32.2726 12.2569 33.3191 12.28 34.3656C12.2996 35.232 13.0234 35.9503 13.8934 35.9674C15.4333 34.4232 16.9944 32.8606 18.5679 31.2865C18.5611 30.411 17.8456 29.698 16.968 29.6929Z" fill="url(#paint23_linear)"/>
<path d="M16.3238 39.1689C15.0284 39.1419 13.945 38.0577 13.9119 36.7547C13.867 34.918 13.8326 33.0813 13.8086 31.2446C15.395 31.2619 16.9815 31.2759 18.5678 31.2867C18.5828 33.1357 18.6044 34.9845 18.6324 36.8335C18.6511 38.1469 17.6195 39.1958 16.3238 39.1689Z" fill="url(#paint24_linear)"/>
<path d="M16.3238 39.1689C15.0284 39.1419 13.945 38.0577 13.9119 36.7547C13.867 34.918 13.8326 33.0813 13.8086 31.2446C15.395 31.2619 16.9815 31.2759 18.5678 31.2867C18.5828 33.1357 18.6044 34.9845 18.6324 36.8335C18.6511 38.1469 17.6195 39.1958 16.3238 39.1689Z" fill="url(#paint25_linear)"/>
<path d="M17.009 33.6475C17.0147 34.0844 16.6662 34.4342 16.23 34.4283C15.7938 34.4224 15.434 34.064 15.4272 33.6283C15.4203 33.1926 15.7698 32.8434 16.2072 32.8482C16.6445 32.853 17.0032 33.2106 17.009 33.6475Z" fill="url(#paint26_linear)"/>
<path d="M17.009 33.6475C17.0147 34.0844 16.6662 34.4342 16.23 34.4283C15.7938 34.4224 15.434 34.064 15.4272 33.6283C15.4203 33.1926 15.7698 32.8434 16.2072 32.8482C16.6445 32.853 17.0032 33.2106 17.009 33.6475Z" fill="url(#paint27_radial)"/>
<path d="M16.955 27.32C16.9565 27.7569 16.6024 28.1096 16.1632 28.1075C15.7241 28.1055 15.366 27.7504 15.3642 27.3147C15.3623 26.879 15.7176 26.5264 16.157 26.5273C16.5965 26.5282 16.9534 26.883 16.955 27.32Z" fill="url(#paint28_linear)"/>
<path d="M16.955 27.32C16.9565 27.7569 16.6024 28.1096 16.1632 28.1075C15.7241 28.1055 15.366 27.7504 15.3642 27.3147C15.3623 26.879 15.7176 26.5264 16.157 26.5273C16.5965 26.5282 16.9534 26.883 16.955 27.32Z" fill="url(#paint29_radial)"/>
<path d="M16.9512 24.1564C16.9507 24.5933 16.5945 24.9475 16.1549 24.9474C15.7154 24.9473 15.3591 24.5938 15.3597 24.1582C15.3604 23.7225 15.7177 23.3682 16.157 23.3672C16.5963 23.3661 16.9516 23.7195 16.9512 24.1564Z" fill="url(#paint30_linear)"/>
<path d="M16.9512 24.1564C16.9507 24.5933 16.5945 24.9475 16.1549 24.9474C15.7154 24.9473 15.3591 24.5938 15.3597 24.1582C15.3604 23.7225 15.7177 23.3682 16.157 23.3672C16.5963 23.3661 16.9516 23.7195 16.9512 24.1564Z" fill="url(#paint31_radial)"/>
<defs>
<linearGradient id="paint0_linear" x1="1.54197" y1="51.458" x2="46.3833" y2="6.61672" gradientUnits="userSpaceOnUse">
<stop stop-color="#FF4C5E"/>
<stop offset="1" stop-color="#FFF200"/>
</linearGradient>
<radialGradient id="paint1_radial" cx="0" cy="0" r="1" gradientUnits="userSpaceOnUse" gradientTransform="translate(26.5 26.5) scale(26.5)">
<stop stop-color="#FF4C5E" stop-opacity="0.6"/>
<stop offset="1" stop-color="#FFF200" stop-opacity="0"/>
</radialGradient>
<linearGradient id="paint2_linear" x1="-2.4321" y1="45.0992" x2="33.8741" y2="8.79309" gradientUnits="userSpaceOnUse">
<stop stop-color="#FFF200"/>
<stop offset="0.2096" stop-color="#FFF52F"/>
<stop offset="0.7578" stop-color="#FEFCA6"/>
<stop offset="1" stop-color="#FEFFD6"/>
</linearGradient>
<linearGradient id="paint3_linear" x1="7.62505" y1="24.9886" x2="78.9067" y2="-46.2929" gradientUnits="userSpaceOnUse">
<stop stop-color="#FFF200"/>
<stop offset="0.2096" stop-color="#FFF52F"/>
<stop offset="0.7578" stop-color="#FEFCA6"/>
<stop offset="1" stop-color="#FEFFD6"/>
</linearGradient>
<linearGradient id="paint4_linear" x1="-0.595095" y1="37.081" x2="41.8825" y2="-5.39648" gradientUnits="userSpaceOnUse">
<stop stop-color="#FFF200"/>
<stop offset="0.2096" stop-color="#FFF52F"/>
<stop offset="0.7578" stop-color="#FEFCA6"/>
<stop offset="1" stop-color="#FEFFD6"/>
</linearGradient>
<linearGradient id="paint5_linear" x1="11.0686" y1="43.4401" x2="77.745" y2="-23.2363" gradientUnits="userSpaceOnUse">
<stop stop-color="#FF3838"/>
<stop offset="1" stop-color="#FFF200"/>
</linearGradient>
<linearGradient id="paint6_linear" x1="7.40262" y1="58.6891" x2="81.8288" y2="-15.7371" gradientUnits="userSpaceOnUse">
<stop stop-color="#FF3838"/>
<stop offset="1" stop-color="#FFF200"/>
</linearGradient>
<linearGradient id="paint7_linear" x1="26.5" y1="38.5808" x2="26.5" y2="31.3999" gradientUnits="userSpaceOnUse">
<stop stop-color="#FF4C5E" stop-opacity="0"/>
<stop offset="0.316" stop-color="#FF4957" stop-opacity="0.19"/>
<stop offset="0.7718" stop-color="#FF3F44" stop-opacity="0.463"/>
<stop offset="1" stop-color="#FF3838" stop-opacity="0.6"/>
</linearGradient>
<linearGradient id="paint8_linear" x1="1.03949" y1="45.4567" x2="62.5166" y2="-16.0205" gradientUnits="userSpaceOnUse">
<stop stop-color="#FF3838"/>
<stop offset="1" stop-color="#FFF200"/>
</linearGradient>
<linearGradient id="paint9_linear" x1="1.06131" y1="54.1793" x2="61.9653" y2="-6.7246" gradientUnits="userSpaceOnUse">
<stop stop-color="#FF3838"/>
<stop offset="1" stop-color="#FFF200"/>
</linearGradient>
<linearGradient id="paint10_linear" x1="6.90967" y1="52.4247" x2="51.6638" y2="7.67066" gradientUnits="userSpaceOnUse">
<stop stop-color="#FF3838"/>
<stop offset="1" stop-color="#FFF200"/>
</linearGradient>
<linearGradient id="paint11_linear" x1="11.3361" y1="60.174" x2="42.0508" y2="29.4592" gradientUnits="userSpaceOnUse">
<stop stop-color="#FFF200"/>
<stop offset="0.2096" stop-color="#FFF52F"/>
<stop offset="0.7578" stop-color="#FEFCA6"/>
<stop offset="1" stop-color="#FEFFD6"/>
</linearGradient>
<linearGradient id="paint12_linear" x1="19.5348" y1="47.4276" x2="53.502" y2="13.4604" gradientUnits="userSpaceOnUse">
<stop stop-color="#FFF200"/>
<stop offset="0.2096" stop-color="#FFF52F"/>
<stop offset="0.7578" stop-color="#FEFCA6"/>
<stop offset="1" stop-color="#FEFFD6"/>
</linearGradient>
<linearGradient id="paint13_linear" x1="12.0606" y1="59.1965" x2="49.7418" y2="21.5153" gradientUnits="userSpaceOnUse">
<stop stop-color="#FF3838"/>
<stop offset="1" stop-color="#FFF200"/>
</linearGradient>
<linearGradient id="paint14_linear" x1="36.7793" y1="42.5322" x2="36.7793" y2="29.612" gradientUnits="userSpaceOnUse">
<stop stop-color="#FF4C5E" stop-opacity="0"/>
<stop offset="0.5455" stop-color="#FF4C5C" stop-opacity="0.327"/>
<stop offset="0.742" stop-color="#FF4856" stop-opacity="0.445"/>
<stop offset="0.8815" stop-color="#FF424A" stop-opacity="0.529"/>
<stop offset="0.9941" stop-color="#FF3939" stop-opacity="0.597"/>
<stop offset="1" stop-color="#FF3838" stop-opacity="0.6"/>
</linearGradient>
<linearGradient id="paint15_linear" x1="32.9476" y1="37.4714" x2="41.9988" y2="28.4201" gradientUnits="userSpaceOnUse">
<stop stop-color="#FF3838"/>
<stop offset="1" stop-color="#FFF200"/>
</linearGradient>
<radialGradient id="paint16_radial" cx="0" cy="0" r="1" gradientUnits="userSpaceOnUse" gradientTransform="translate(36.782 33.6383) scale(1.56257)">
<stop offset="0.0056" stop-color="#FF3838" stop-opacity="0"/>
<stop offset="1" stop-color="#FF3838" stop-opacity="0.6"/>
</radialGradient>
<linearGradient id="paint17_linear" x1="32.8705" y1="31.2865" x2="41.8606" y2="22.2965" gradientUnits="userSpaceOnUse">
<stop stop-color="#FF3838"/>
<stop offset="1" stop-color="#FFF200"/>
</linearGradient>
<radialGradient id="paint18_radial" cx="0" cy="0" r="1" gradientUnits="userSpaceOnUse" gradientTransform="translate(36.8403 27.3175) scale(1.56691)">
<stop offset="0.0056" stop-color="#FF3838" stop-opacity="0"/>
<stop offset="1" stop-color="#FF3838" stop-opacity="0.6"/>
</radialGradient>
<linearGradient id="paint19_linear" x1="32.4292" y1="28.5721" x2="41.3776" y2="19.6239" gradientUnits="userSpaceOnUse">
<stop stop-color="#FF3838"/>
<stop offset="1" stop-color="#FFF200"/>
</linearGradient>
<radialGradient id="paint20_radial" cx="0" cy="0" r="1" gradientUnits="userSpaceOnUse" gradientTransform="translate(36.8447 24.1573) scale(1.56723)">
<stop offset="0.0056" stop-color="#FF3838" stop-opacity="0"/>
<stop offset="1" stop-color="#FF3838" stop-opacity="0.6"/>
</radialGradient>
<linearGradient id="paint21_linear" x1="-8.3482" y1="47.1856" x2="36.7495" y2="2.08792" gradientUnits="userSpaceOnUse">
<stop stop-color="#FF3838"/>
<stop offset="1" stop-color="#FFF200"/>
</linearGradient>
<linearGradient id="paint22_linear" x1="1.4263" y1="49.5634" x2="20.3239" y2="30.6658" gradientUnits="userSpaceOnUse">
<stop stop-color="#FFF200"/>
<stop offset="0.2096" stop-color="#FFF52F"/>
<stop offset="0.7578" stop-color="#FEFCA6"/>
<stop offset="1" stop-color="#FEFFD6"/>
</linearGradient>
<linearGradient id="paint23_linear" x1="0.0235387" y1="46.3035" x2="32.047" y2="14.28" gradientUnits="userSpaceOnUse">
<stop stop-color="#FFF200"/>
<stop offset="0.2096" stop-color="#FFF52F"/>
<stop offset="0.7578" stop-color="#FEFCA6"/>
<stop offset="1" stop-color="#FEFFD6"/>
</linearGradient>
<linearGradient id="paint24_linear" x1="-5.30424" y1="56.0683" x2="31.2402" y2="19.5238" gradientUnits="userSpaceOnUse">
<stop stop-color="#FF3838"/>
<stop offset="1" stop-color="#FFF200"/>
</linearGradient>
<linearGradient id="paint25_linear" x1="16.2207" y1="42.5324" x2="16.2207" y2="29.6122" gradientUnits="userSpaceOnUse">
<stop stop-color="#FF4C5E" stop-opacity="0"/>
<stop offset="0.5455" stop-color="#FF4C5C" stop-opacity="0.327"/>
<stop offset="0.742" stop-color="#FF4856" stop-opacity="0.445"/>
<stop offset="0.8815" stop-color="#FF424A" stop-opacity="0.529"/>
<stop offset="0.9941" stop-color="#FF3939" stop-opacity="0.597"/>
<stop offset="1" stop-color="#FF3838" stop-opacity="0.6"/>
</linearGradient>
<linearGradient id="paint26_linear" x1="13.4527" y1="36.4037" x2="22.2653" y2="27.5909" gradientUnits="userSpaceOnUse">
<stop stop-color="#FF3838"/>
<stop offset="1" stop-color="#FFF200"/>
</linearGradient>
<radialGradient id="paint27_radial" cx="0" cy="0" r="1" gradientUnits="userSpaceOnUse" gradientTransform="translate(16.218 33.6383) scale(1.56257)">
<stop offset="0.0056" stop-color="#FF3838" stop-opacity="0"/>
<stop offset="1" stop-color="#FF3838" stop-opacity="0.6"/>
</radialGradient>
<linearGradient id="paint28_linear" x1="13.1453" y1="30.3322" x2="22.0705" y2="21.4071" gradientUnits="userSpaceOnUse">
<stop stop-color="#FF3838"/>
<stop offset="1" stop-color="#FFF200"/>
</linearGradient>
<radialGradient id="paint29_radial" cx="0" cy="0" r="1" gradientUnits="userSpaceOnUse" gradientTransform="translate(16.1596 27.3175) scale(1.56692)">
<stop offset="0.0056" stop-color="#FF3838" stop-opacity="0"/>
<stop offset="1" stop-color="#FF3838" stop-opacity="0.6"/>
</radialGradient>
<linearGradient id="paint30_linear" x1="12.804" y1="27.5094" x2="21.7741" y2="18.5393" gradientUnits="userSpaceOnUse">
<stop stop-color="#FF3838"/>
<stop offset="1" stop-color="#FFF200"/>
</linearGradient>
<radialGradient id="paint31_radial" cx="0" cy="0" r="1" gradientUnits="userSpaceOnUse" gradientTransform="translate(16.1555 24.1572) scale(1.56722)">
<stop offset="0.0056" stop-color="#FF3838" stop-opacity="0"/>
<stop offset="1" stop-color="#FF3838" stop-opacity="0.6"/>
</radialGradient>
</defs>
</svg>
