<svg width="53" height="53" viewBox="0 0 53 53" fill="none" xmlns="http://www.w3.org/2000/svg">
<path d="M26.5 53C41.1355 53 53 41.1355 53 26.5C53 11.8645 41.1355 0 26.5 0C11.8645 0 0 11.8645 0 26.5C0 41.1355 11.8645 53 26.5 53Z" fill="#FD8469"/>
<path d="M9.98626 36.6034L35.1567 43.8145L43.0107 16.3999L17.8402 9.18888L9.98626 36.6034Z" fill="#E6E9EE"/>
<path d="M39.5923 12.2407H13.4077V40.7598H39.5923V12.2407Z" fill="white"/>
<path d="M21.5681 19.6227H20.527L18.6447 16.7519C18.529 16.5837 18.4554 16.4575 18.4133 16.3733H18.4028C18.4238 16.5311 18.4238 16.7835 18.4238 17.1094V19.6227H17.4564V15.0589H18.5605L20.3693 17.835C20.4534 17.9612 20.527 18.0874 20.6006 18.2031H20.6111C20.5901 18.0979 20.5901 17.8876 20.5901 17.5721V15.0483H21.5576V19.6227H21.5681Z" fill="#324A5E"/>
<path d="M25.3537 19.623H22.6196V15.0591H25.2485V15.9004H23.6396V16.9204H25.1329V17.7511H23.6396V18.7922H25.3537V19.623Z" fill="#324A5E"/>
<path d="M32.0628 15.0591L30.8535 19.623H29.7178L28.9607 16.689C28.9186 16.5313 28.8976 16.3631 28.8871 16.1738H28.8765C28.8555 16.3841 28.8345 16.5523 28.7924 16.689L28.0142 19.623H26.8154L25.6166 15.0591H26.7418L27.3833 18.0982C27.4148 18.2244 27.4359 18.4031 27.4464 18.624H27.4674C27.4779 18.4557 27.5095 18.2769 27.5621 18.0877L28.3928 15.0591H29.497L30.2436 18.1297C30.2752 18.2454 30.2962 18.4031 30.3172 18.624H30.3277C30.3382 18.4557 30.3593 18.2875 30.3908 18.1192L31.0218 15.0696H32.0628V15.0591Z" fill="#324A5E"/>
<path d="M32.431 19.4546V18.4345C32.6202 18.5923 32.82 18.7079 33.0304 18.7815C33.2512 18.8552 33.4615 18.8972 33.6823 18.8972C33.8085 18.8972 33.9242 18.8867 34.0189 18.8657C34.1135 18.8446 34.1976 18.8131 34.2607 18.771C34.3238 18.729 34.3764 18.6764 34.4079 18.6238C34.4395 18.5712 34.4605 18.5081 34.4605 18.445C34.4605 18.3609 34.4395 18.2768 34.3869 18.2032C34.3343 18.1296 34.2712 18.0665 34.1766 18.0139C34.0925 17.9508 33.9873 17.8982 33.8611 17.8456C33.7349 17.7931 33.6087 17.73 33.472 17.6774C33.1145 17.5302 32.8516 17.3514 32.6728 17.1306C32.4941 16.9202 32.4099 16.6573 32.4099 16.3524C32.4099 16.1105 32.4625 15.9107 32.5571 15.7425C32.6518 15.5742 32.778 15.427 32.9462 15.3218C33.1145 15.2167 33.3038 15.1325 33.5141 15.08C33.7349 15.0274 33.9558 15.0063 34.1976 15.0063C34.4395 15.0063 34.6498 15.0169 34.8286 15.0484C35.0073 15.08 35.1861 15.122 35.3333 15.1851V16.1421C35.2597 16.0895 35.1756 16.0474 35.081 16.0054C34.9863 15.9633 34.9022 15.9317 34.8075 15.9002C34.7129 15.8686 34.6183 15.8581 34.5236 15.8371C34.429 15.8266 34.3343 15.8161 34.2502 15.8161C34.1345 15.8161 34.0294 15.8266 33.9347 15.8476C33.8401 15.8686 33.756 15.9002 33.6929 15.9423C33.6298 15.9843 33.5772 16.0264 33.5351 16.0895C33.5036 16.1421 33.4825 16.2052 33.4825 16.2788C33.4825 16.3524 33.5036 16.426 33.5456 16.4891C33.5877 16.5522 33.6403 16.6048 33.7139 16.6573C33.7875 16.7099 33.8821 16.7625 33.9873 16.8151C34.0925 16.8677 34.2187 16.9202 34.3448 16.9728C34.5236 17.0464 34.6919 17.1306 34.8391 17.2147C34.9863 17.2988 35.1125 17.3935 35.2177 17.5091C35.3228 17.6143 35.3964 17.7405 35.4595 17.8772C35.5121 18.0139 35.5437 18.1821 35.5437 18.3609C35.5437 18.6133 35.4911 18.8341 35.3964 19.0024C35.3018 19.1706 35.1651 19.3179 35.0073 19.423C34.8391 19.5282 34.6498 19.6123 34.429 19.6544C34.2081 19.6964 33.9768 19.728 33.7349 19.728C33.4825 19.728 33.2512 19.7069 33.0198 19.6649C32.7885 19.6018 32.5887 19.5387 32.431 19.4546Z" fill="#324A5E"/>
<path d="M36.1956 22.3467H16.8043V23.5245H36.1956V22.3467Z" fill="#324A5E"/>
<path d="M36.1956 25.9111H16.8043V27.0889H36.1956V25.9111Z" fill="#324A5E"/>
<path d="M27.1309 29.4761H16.8043V30.6538H27.1309V29.4761Z" fill="#324A5E"/>
<path d="M27.1309 33.0308H16.8043V34.2085H27.1309V33.0308Z" fill="#324A5E"/>
<path d="M27.1309 36.5952H16.8043V37.773H27.1309V36.5952Z" fill="#324A5E"/>
<path d="M36.1957 29.4761H28.8346V37.7836H36.1957V29.4761Z" fill="#FFD05B"/>
</svg>
