<svg width="20" height="18" viewBox="0 0 20 18" fill="none" xmlns="http://www.w3.org/2000/svg">
<g clip-path="url(#clip0)">
<path d="M15.8594 1.08984H13.5156H11.1719C8.91051 1.08984 7.03125 2.74602 7.03125 4.78125C7.03125 6.63778 8.60098 8.17861 10.5859 8.43507V10.0547C10.5859 10.2679 10.7284 10.4605 10.9476 10.5418C11.1637 10.623 11.4172 10.5795 11.5862 10.4275L13.5156 8.69101L13.7582 8.47266H15.8594C18.1207 8.47266 20 6.81648 20 4.78125C20 2.74602 18.1207 1.08984 15.8594 1.08984Z" fill="#FED843"/>
<path d="M15.8594 8.47266C18.1207 8.47266 20 6.81648 20 4.78125C20 2.74602 18.1207 1.08984 15.8594 1.08984H13.5156V8.69101L13.7582 8.47266H15.8594Z" fill="#FABE2C"/>
<path d="M14.9219 13.2188V15.3281C14.9219 16.2457 14.0895 16.9102 13.1723 16.9102C9.79688 16.9102 6.50391 15.474 4.05469 13.2785C1.60547 11.083 0 8.12812 0 5.09027C0 4.2177 0.788672 3.51562 1.75781 3.51562H4.10156C4.35391 3.51562 4.57773 3.66082 4.65703 3.87598L5.82891 7.03266C5.88633 7.18734 5.86094 7.3568 5.76094 7.49215L4.76719 8.83406C5.14375 9.54492 5.81016 10.3219 6.57969 11.006C7.34961 11.6898 8.22266 12.2808 9.0125 12.6197L10.5035 11.7253C10.6547 11.6357 10.8422 11.6121 11.0141 11.6641L14.5297 12.7188C14.7687 12.7902 14.9219 12.9916 14.9219 13.2188Z" fill="#FF641A"/>
<path d="M14.9219 13.2187V15.3281C14.9219 16.2457 14.0895 16.9102 13.1723 16.9102C9.79687 16.9102 6.50391 15.474 4.05469 13.2785L6.57969 11.006C7.34961 11.6898 8.22266 12.2808 9.0125 12.6197L10.5035 11.7253C10.6547 11.6357 10.8422 11.6121 11.0141 11.6641L14.5297 12.7188C14.7687 12.7902 14.9219 12.9916 14.9219 13.2187Z" fill="#F03800"/>
<path d="M11.1718 5.30856C11.4954 5.30856 11.7578 5.07246 11.7578 4.78122C11.7578 4.48997 11.4954 4.25388 11.1718 4.25388C10.8482 4.25388 10.5859 4.48997 10.5859 4.78122C10.5859 5.07246 10.8482 5.30856 11.1718 5.30856Z" fill="#613D5C"/>
<path d="M13.5156 5.30853C13.8392 5.30853 14.1016 5.07243 14.1016 4.78119C14.1016 4.48994 13.8392 4.25385 13.5156 4.25385C13.192 4.25385 12.9297 4.48994 12.9297 4.78119C12.9297 5.07243 13.192 5.30853 13.5156 5.30853Z" fill="#613D5C"/>
<path d="M14.1016 4.78119C14.1016 4.48995 13.8392 4.25385 13.5156 4.25385V5.30853C13.8392 5.30853 14.1016 5.07242 14.1016 4.78119Z" fill="#4B2746"/>
<path d="M15.8593 5.30856C16.1829 5.30856 16.4453 5.07246 16.4453 4.78122C16.4453 4.48997 16.1829 4.25388 15.8593 4.25388C15.5357 4.25388 15.2734 4.48997 15.2734 4.78122C15.2734 5.07246 15.5357 5.30856 15.8593 5.30856Z" fill="#4B2746"/>
</g>
<defs>
<clipPath id="clip0">
<rect width="20" height="18" fill="white"/>
</clipPath>
</defs>
</svg>
