<svg width="42" height="42" viewBox="0 0 42 42" fill="none" xmlns="http://www.w3.org/2000/svg">
<path d="M33.3047 2.54297H28.3828H23.4609C18.7121 2.54297 14.7656 6.40738 14.7656 11.1562C14.7656 15.4882 18.0621 19.0834 22.2305 19.6818V23.4609C22.2305 23.9584 22.5296 24.4078 22.9899 24.5976C23.4438 24.7871 23.9762 24.6855 24.331 24.3309L28.3828 20.279L28.8923 19.7695H33.3047C38.0536 19.7695 42 15.9051 42 11.1562C42 6.40738 38.0536 2.54297 33.3047 2.54297Z" fill="#FED843"/>
<path d="M33.3047 19.7695C38.0536 19.7695 42 15.9051 42 11.1562C42 6.40738 38.0536 2.54297 33.3047 2.54297H28.3828V20.279L28.8923 19.7695H33.3047Z" fill="#FABE2C"/>
<path d="M31.3359 30.8438V35.7656C31.3359 37.9066 29.5879 39.457 27.6618 39.457C20.5734 39.457 13.6582 36.1061 8.51484 30.9832C3.37148 25.8604 0 18.9656 0 11.8773C0 9.84129 1.65621 8.20312 3.69141 8.20312H8.61328C9.1432 8.20312 9.61324 8.54191 9.77977 9.04395L12.2407 16.4095C12.3613 16.7705 12.308 17.1659 12.098 17.4817L10.0111 20.6128C10.8019 22.2715 12.2013 24.0844 13.8173 25.6807C15.4342 27.2762 17.2676 28.6552 18.9263 29.4459L22.0574 27.3591C22.3748 27.1499 22.7686 27.0949 23.1295 27.2163L30.5123 29.6773C31.0144 29.8438 31.3359 30.3138 31.3359 30.8438Z" fill="#FF641A"/>
<path d="M31.336 30.8437V35.7656C31.336 37.9066 29.5879 39.457 27.6618 39.457C20.5735 39.457 13.6582 36.106 8.51486 30.9832L13.8174 25.6807C15.4342 27.2762 17.2676 28.6551 18.9263 29.4459L22.0574 27.359C22.3749 27.1498 22.7686 27.0949 23.1295 27.2163L30.5124 29.6772C31.0144 29.8437 31.336 30.3138 31.336 30.8437Z" fill="#F03800"/>
<path d="M23.4608 12.3867C24.1404 12.3867 24.6913 11.8358 24.6913 11.1562C24.6913 10.4767 24.1404 9.92578 23.4608 9.92578C22.7812 9.92578 22.2303 10.4767 22.2303 11.1562C22.2303 11.8358 22.7812 12.3867 23.4608 12.3867Z" fill="#613D5C"/>
<path d="M28.3828 12.3867C29.0624 12.3867 29.6133 11.8358 29.6133 11.1562C29.6133 10.4767 29.0624 9.92578 28.3828 9.92578C27.7032 9.92578 27.1523 10.4767 27.1523 11.1562C27.1523 11.8358 27.7032 12.3867 28.3828 12.3867Z" fill="#613D5C"/>
<path d="M29.6133 11.1562C29.6133 10.4767 29.0624 9.92578 28.3828 9.92578V12.3867C29.0624 12.3867 29.6133 11.8358 29.6133 11.1562Z" fill="#4B2746"/>
<path d="M33.3046 12.3877C33.9841 12.3877 34.535 11.8368 34.535 11.1572C34.535 10.4777 33.9841 9.92676 33.3046 9.92676C32.625 9.92676 32.0741 10.4777 32.0741 11.1572C32.0741 11.8368 32.625 12.3877 33.3046 12.3877Z" fill="#4B2746"/>
</svg>
