<svg width="55" height="55" viewBox="0 0 55 55" fill="none" xmlns="http://www.w3.org/2000/svg">
<g filter="url(#filter0_bd)">
<path d="M40.6562 20.1769C40.305 20.0319 39.9458 19.9068 39.5804 19.8023L39.0625 16.1925H37.4687V9.61031C36.6667 9.05262 36.0255 8.2939 35.6092 7.41021C35.193 6.52653 35.0163 5.54894 35.0971 4.57546C35.1778 3.60199 35.513 2.66684 36.0691 1.86378C36.6252 1.06072 37.3827 0.417982 38.2656 0V5.03625L40.6562 5.83312L43.0468 5.03625V0C43.9297 0.417982 44.6872 1.06072 45.2433 1.86378C45.7994 2.66684 46.1346 3.60199 46.2154 4.57546C46.2961 5.54894 46.1195 6.52653 45.7032 7.41021C45.2869 8.2939 44.6457 9.05262 43.8437 9.61031V19.0134L41.6523 20.655C41.329 20.4781 40.9965 20.3185 40.6562 20.1769Z" fill="#C6C5CA"/>
<path d="M39.8594 9.8175H41.4531V20.9738H39.8594V9.8175Z" fill="#898890"/>
<path d="M46.6089 32.648C46.4029 33.3683 46.1169 34.0632 45.7563 34.7199L47.9397 37.6284L44.5609 41.0072L41.6523 38.8238C40.9957 39.1844 40.3008 39.4704 39.5805 39.6764L39.0625 43.2863H34.2812L33.7633 39.6764C33.043 39.4704 32.348 39.1844 31.6914 38.8238L28.7828 41.0072L25.4041 37.6284L27.5875 34.7199C27.2268 34.0632 26.9408 33.3683 26.7348 32.648L23.125 32.13V27.3488L26.7348 26.8308C26.9408 26.1105 27.2268 25.4155 27.5875 24.7589L25.4041 21.8503L28.7828 18.4716L30.5359 19.7864L31.6914 20.655C32.0147 20.4781 32.3472 20.3185 32.6875 20.1769C33.0388 20.0319 33.3979 19.9069 33.7633 19.8023L34.2812 16.1925H39.0625L39.5805 19.8023C39.9458 19.9069 40.305 20.0319 40.6562 20.1769C40.9965 20.3185 41.329 20.4781 41.6523 20.655L43.8438 19.0134L44.5609 18.4716L47.9397 21.8503L45.7563 24.7589C46.1169 25.4155 46.4029 26.1105 46.6089 26.8308L50.2188 27.3488V32.13L46.6089 32.648Z" fill="#FF9811"/>
<path d="M25.5156 28.9425H27.1094V30.5363H25.5156V28.9425Z" fill="#CC7400"/>
<path d="M40.6562 24.7669C39.7391 24.0298 38.6359 23.561 37.4687 23.4122C37.2043 23.3802 36.9382 23.3642 36.6719 23.3644C34.9811 23.3644 33.3596 24.036 32.1641 25.2316C30.9685 26.4271 30.2969 28.0486 30.2969 29.7394C30.2995 30.7952 30.5637 31.8339 31.0656 32.7628C31.5676 33.6917 32.2918 34.4818 33.1736 35.0625C34.2114 35.7485 35.4279 36.1143 36.6719 36.1144C37.2093 36.1135 37.7445 36.0466 38.2656 35.9152C39.4115 35.6192 40.4524 35.01 41.2716 34.156C42.0909 33.3019 42.6563 32.2366 42.9044 31.0794C43.1526 29.9223 43.0737 28.7188 42.6766 27.604C42.2796 26.4891 41.58 25.5067 40.6562 24.7669Z" fill="#FFD422"/>
<path d="M40.6562 20.1769V24.7669C39.7391 24.0298 38.6359 23.561 37.4688 23.4122V16.1925H39.0625L39.5805 19.8023C39.9458 19.9068 40.305 20.0319 40.6562 20.1769Z" fill="#FF9811"/>
<path d="M33.1736 35.0625C32.2793 33.5465 30.9054 32.3716 29.2689 31.7236L23.125 29.2613L22.3281 28.9425C22.3281 29.7879 21.9923 30.5986 21.3945 31.1964C20.7968 31.7942 19.986 32.13 19.1406 32.13C18.2952 32.13 17.4845 31.7942 16.8867 31.1964C16.289 30.5986 15.9531 29.7879 15.9531 28.9425L9.01235 31.7236C7.53252 32.3127 6.26363 33.3325 5.36997 34.651C4.47632 35.9694 3.99906 37.5258 4 39.1186V46.4738H34.2813V39.1186C34.2822 37.6917 33.8996 36.2909 33.1736 35.0625Z" fill="#3D9AE2"/>
<path d="M22.3281 26.6794V28.9425C22.3281 29.7879 21.9923 30.5986 21.3945 31.1964C20.7968 31.7942 19.986 32.13 19.1406 32.13C18.2952 32.13 17.4845 31.7942 16.8867 31.1964C16.289 30.5986 15.9531 29.7879 15.9531 28.9425V26.6794C16.9578 27.1208 18.0432 27.3487 19.1406 27.3487C20.238 27.3487 21.3234 27.1208 22.3281 26.6794Z" fill="#FFC477"/>
<path d="M22.3281 26.6794V28.2731C21.3234 28.7146 20.238 28.9425 19.1406 28.9425C18.0432 28.9425 16.9578 28.7146 15.9531 28.2731V26.6794C16.9578 27.1208 18.0432 27.3487 19.1406 27.3487C20.238 27.3487 21.3234 27.1208 22.3281 26.6794Z" fill="#FFB655"/>
<path d="M27.1094 14.8139V15.3956H26.3125C25.8177 15.3956 25.3296 15.2804 24.887 15.0591C24.4444 14.8378 24.0594 14.5165 23.7625 14.1206L22.3281 12.2081L19.6506 14.3517C18.8048 15.0285 17.7536 15.3968 16.6703 15.3956H11.1719V13.8019C11.1719 11.6884 12.0114 9.66155 13.5059 8.16712C15.0003 6.67269 17.0272 5.83313 19.1406 5.83313C21.2541 5.83313 23.281 6.67269 24.7754 8.16712C26.2698 9.66155 27.1094 11.6884 27.1094 13.8019V14.8139Z" fill="#57565C"/>
<path d="M26.3125 15.3956C25.8177 15.3956 25.3296 15.2804 24.887 15.0591C24.4444 14.8378 24.0594 14.5165 23.7625 14.1206L22.3281 12.2081L19.6506 14.3517C18.8048 15.0285 17.7536 15.3968 16.6703 15.3956H11.1719V19.38C11.1719 19.5713 11.1798 19.7625 11.1958 19.9458C11.31 21.565 11.9165 23.1106 12.9339 24.3754C13.9513 25.6403 15.331 26.5639 16.8881 27.0225C18.4452 27.4812 20.1053 27.4529 21.6459 26.9415C23.1865 26.4301 24.5339 25.46 25.5077 24.1613C25.7952 23.7923 26.0436 23.3943 26.2487 22.9739C26.6934 22.1062 26.9718 21.1629 27.0695 20.1928V20.1849C27.0775 20.1052 27.0855 20.0255 27.0855 19.9458C27.1014 19.7625 27.1094 19.5713 27.1094 19.38V15.3956H26.3125Z" fill="#FFC477"/>
<path d="M27.1094 36.9113H28.7031V46.4738H27.1094V36.9113Z" fill="#1E81CE"/>
<path d="M9.57812 36.9113H11.1719V46.4738H9.57812V36.9113Z" fill="#1E81CE"/>
<path d="M30.2969 15.3956H28.7031V13.005C28.7031 10.4689 27.6957 8.03661 25.9023 6.2433C24.109 4.44998 21.6768 3.4425 19.1406 3.4425C16.6045 3.4425 14.1722 4.44998 12.3789 6.2433C10.5856 8.03661 9.57812 10.4689 9.57812 13.005V15.3956H7.98438V13.005C7.98438 10.0462 9.15976 7.20855 11.252 5.11634C13.3442 3.02414 16.1818 1.84875 19.1406 1.84875C22.0994 1.84875 24.9371 3.02414 27.0293 5.11634C29.1215 7.20855 30.2969 10.0462 30.2969 13.005V15.3956Z" fill="#FF9811"/>
<path d="M27.9062 24.9581H19.1406V23.3644H27.9062C28.1176 23.3644 28.3203 23.2804 28.4697 23.131C28.6192 22.9815 28.7031 22.7788 28.7031 22.5675V19.38H30.2969V22.5675C30.2969 23.2015 30.045 23.8096 29.5967 24.2579C29.1483 24.7063 28.5403 24.9581 27.9062 24.9581Z" fill="#EE8700"/>
<path d="M14.3594 17.7863H15.9531V19.38H14.3594V17.7863Z" fill="#EE8700"/>
<path d="M22.3281 17.7863H23.9219V19.38H22.3281V17.7863Z" fill="#EE8700"/>
<path d="M35.875 18.5831H37.4688V20.1769H35.875V18.5831Z" fill="#CC7400"/>
<path d="M35.875 39.3019H37.4688V40.8956H35.875V39.3019Z" fill="#CC7400"/>
<path d="M42.8608 37.0651L43.9877 35.9381L45.1147 37.0651L43.9877 38.192L42.8608 37.0651Z" fill="#CC7400"/>
<path d="M46.2344 28.9425H47.8281V30.5363H46.2344V28.9425Z" fill="#CC7400"/>
<path d="M42.8629 22.4165L43.9898 21.2896L45.1168 22.4165L43.9898 23.5435L42.8629 22.4165Z" fill="#CC7400"/>
<path d="M29.5 14.5988H27.9063C27.6264 14.5993 27.3515 14.6735 27.1094 14.8139V19.38C27.1094 19.5713 27.1014 19.7625 27.0855 19.9458C27.1334 19.977 27.1841 20.0037 27.2369 20.0255C27.4463 20.1242 27.6748 20.1759 27.9063 20.1769H29.5C29.8817 20.1791 30.2507 20.04 30.536 19.7864C30.7111 19.6386 30.8517 19.4544 30.9481 19.2465C31.0444 19.0386 31.0942 18.8122 31.0938 18.5831V16.1925C31.0925 15.7702 30.9242 15.3656 30.6256 15.0669C30.327 14.7683 29.9223 14.6 29.5 14.5988Z" fill="#EE8700"/>
<path d="M11.1719 19.38C11.1719 19.5713 11.1798 19.7625 11.1958 19.9458C10.95 20.0999 10.6651 20.1801 10.375 20.1769H8.78125C8.35895 20.1756 7.9543 20.0073 7.65569 19.7087C7.35708 19.4101 7.18876 19.0054 7.1875 18.5831V16.1925C7.18876 15.7702 7.35708 15.3656 7.65569 15.0669C7.9543 14.7683 8.35895 14.6 8.78125 14.5988H10.375C10.6549 14.5993 10.9298 14.6735 11.1719 14.8139V19.38Z" fill="#EE8700"/>
</g>
<defs>
<filter id="filter0_bd" x="0" y="-4" width="54.2188" height="58.4738" filterUnits="userSpaceOnUse" color-interpolation-filters="sRGB">
<feFlood flood-opacity="0" result="BackgroundImageFix"/>
<feGaussianBlur in="BackgroundImage" stdDeviation="2"/>
<feComposite in2="SourceAlpha" operator="in" result="effect1_backgroundBlur"/>
<feColorMatrix in="SourceAlpha" type="matrix" values="0 0 0 0 0 0 0 0 0 0 0 0 0 0 0 0 0 0 127 0"/>
<feOffset dy="4"/>
<feGaussianBlur stdDeviation="2"/>
<feColorMatrix type="matrix" values="0 0 0 0 0 0 0 0 0 0 0 0 0 0 0 0 0 0 0.25 0"/>
<feBlend mode="normal" in2="effect1_backgroundBlur" result="effect2_dropShadow"/>
<feBlend mode="normal" in="SourceGraphic" in2="effect2_dropShadow" result="shape"/>
</filter>
</defs>
</svg>
